<!--?xml version="1.0" encoding="utf-8"?-->
<!-- Generator: Adobe Illustrator 25.2.3, SVG Export Plug-In . SVG Version: 6.00 Build 0)  -->
<svg version="1.1" id="_x31_1" xmlns="http://www.w3.org/2000/svg" xmlns:xlink="http://www.w3.org/1999/xlink" x="0px" y="0px" viewBox="0 0 720 715" style="enable-background:new 0 0 720 715;" xml:space="preserve">
<style type="text/css">
	.st0{fill:#F76357;}
	.st1{fill:#2C92E4;}
	.st2{fill:#FAD06C;}
	.st3{fill:#59BA48;}
	.st4{fill:#1D83D5;}
	.st5{fill:#D94539;}
	.st6{fill:#E6BC58;}
	.st7{fill:#5EC4FF;}
	.st8{fill:#F8F2E6;}
	.st9{fill:#DFD9CD;}
	.st10{fill:#046ABC;}
</style>
<g>
	<g>
		<path class="st0" d="M596.123,210.259h-20.885c-1.539,0-2.493-1.675-1.707-2.998l9.9-16.669c0.358-0.602,1.006-0.971,1.707-0.971
			h20.885c1.539,0,2.493,1.675,1.707,2.998l-9.9,16.669C597.472,209.889,596.823,210.259,596.123,210.259z" style="opacity: 1;"></path>
		<path class="st0" d="M305.597,183.115h-17.242c-1.539,0-2.493,1.983-1.707,3.549l9.179,18.298c0.358,0.713,1.006,1.15,1.707,1.15
			h17.242c1.539,0,2.493-1.983,1.707-3.549l-9.179-18.298C306.946,183.552,306.297,183.115,305.597,183.115z" style="opacity: 1;"></path>
		<path class="st1" d="M166.148,233.016l5.261-18.948c0.412-1.482,2.281-1.953,3.346-0.842l13.419,13.994
			c0.485,0.506,0.667,1.229,0.48,1.904l-5.262,18.948c-0.412,1.482-2.281,1.953-3.346,0.842l-13.419-13.994
			C166.143,234.414,165.961,233.691,166.148,233.016z" style="opacity: 1;"></path>
		<path class="st0" d="M326.475,383.874l-6.9-10.647c-0.953-1.471,0.329-3.364,2.049-3.026l18.993,3.734
			c0.528,0.104,0.991,0.417,1.283,0.868l6.9,10.647c0.953,1.471-0.329,3.365-2.049,3.026l-18.993-3.734
			C327.23,384.638,326.767,384.325,326.475,383.874z" style="opacity: 1;"></path>
		<path class="st0" d="M690.081,445.01h-16.028c-1.539,0-2.493-1.675-1.707-2.998l9.179-15.455c0.358-0.602,1.006-0.971,1.707-0.971
			h16.028c1.539,0,2.493,1.675,1.707,2.998l-9.179,15.455C691.43,444.64,690.781,445.01,690.081,445.01z" style="opacity: 1;"></path>
		<path class="st1" d="M381.414,100.258h-9.956c-1.539,0-2.493-1.675-1.707-2.998l7.016-11.813c0.358-0.602,1.006-0.971,1.707-0.971
			h9.956c1.539,0,2.493,1.675,1.707,2.998l-7.016,11.813C382.764,99.889,382.115,100.258,381.414,100.258z" style="opacity: 1;"></path>
		<path class="st2" d="M705.627,185.982h12.384c1.539,0,2.493-1.675,1.707-2.998l-9.9-16.669c-0.358-0.602-1.006-0.971-1.707-0.971
			h-12.384c-1.539,0-2.493,1.675-1.707,2.998l9.9,16.669C704.278,185.613,704.927,185.982,705.627,185.982z" style="opacity: 1;"></path>
		<path class="st3" d="M470.763,518.059h-12.384c-1.539,0-2.493-1.675-1.707-2.998l7.737-13.027
			c0.358-0.602,1.006-0.971,1.707-0.971H478.5c1.539,0,2.493,1.675,1.707,2.998l-7.737,13.027
			C472.112,517.689,471.463,518.059,470.763,518.059z" style="opacity: 1;"></path>
		<path class="st3" d="M480.385,239.54H468c-1.539,0-2.493-1.675-1.707-2.998l10.621-17.883c0.358-0.602,1.006-0.971,1.707-0.971
			h12.384c1.539,0,2.493,1.675,1.707,2.998l-10.621,17.883C481.734,239.171,481.085,239.54,480.385,239.54z" style="opacity: 1;"></path>
		<g>
			<path class="st4" d="M643.702,227.813c0,0,12.253-0.477,26.23,12.346c13.977,12.824,37.667,22.896,44.048,22.138l-5.536,9.738
				c0,0-33.587-13.785-41.889-21.922c-8.302-8.138-23.377-22.904-40.93-13.438C625.625,236.675,633.732,227.147,643.702,227.813z" style="opacity: 1;"></path>
			<path class="st1" d="M505.859,353.564c65.056-7.807,76.232-25.837,89.746-64.349c13.514-38.512,36.768-58.901,48.096-61.401
				c0,0-27.776-0.796-41.764,22.87c-13.989,23.665-15.558,50.118-32.21,65.08c-16.652,14.962-57.668,21.85-66.97,23.105
				L505.859,353.564z" style="opacity: 1;"></path>
		</g>
		<g>
			<path class="st5" d="M577.048,465.764c5.98,21.458-11.824,56.264-40.401,48.161c-28.577-8.103-13.959-123.408,108.576-129.563
				l-2.569,12.876c0,0-68.455,1.533-94.659,51.602c-20.381,38.941-14.614,53.314-5.688,57.316
				c13.747,6.163,41.547-30.434,25.544-51.292L577.048,465.764z" style="opacity: 1;"></path>
			<path class="st0" d="M577.048,465.764c-11.706-36.893-67.117-46.793-103.166-38.308c-41.037,9.659-80.097,37.678-103.176,67.901
				l24.339,7.444c0,0,45.083-51.986,89.636-60.497S557.829,444.028,577.048,465.764z" style="opacity: 1;"></path>
		</g>
		<g>
			<path class="st6" d="M352.56,158.355c7.639-16.992,31.996-20.567,41.208-1.077s3.695,88.229-42.515,112.424l-7.386-9.98
				c0,0,42.434-28.872,42.297-63.675c-0.136-34.803-11.374-44.131-18.617-42.039s-11.052,16.461-4.901,36.142l-8.508-8.271
				L352.56,158.355z" style="opacity: 1;"></path>
			<path class="st2" d="M461.677,0c13.533,103.29-15.312,192.795-55.171,212.913s-62.107-28.599-53.946-54.558
				c0,0,7.911,44.918,34.462,43.644c26.551-1.274,74.442-80.621,52.617-191.22L461.677,0z" style="opacity: 1;"></path>
		</g>
		<path class="st3" d="M198.655,319.445c46.724-68.713,65.574-166.6,51.047-204.895l16.102-21.731c0,0,9.661,72.435-11.251,138.112
			c-20.183,63.386-42.177,94.468-42.177,94.468L198.655,319.445z" style="opacity: 1;"></path>
		<g>
			<g>
				<path class="st1" d="M145.566,390.395c2.383-5.256,9.285-6.511,13.367-2.431l168.219,168.16
					c4.082,4.08,2.826,10.98-2.432,13.362L4.081,714.733c-2.423,1.097-4.912-1.391-3.815-3.813L145.566,390.395z" style="opacity: 1;"></path>
			</g>
			
				<ellipse transform="matrix(0.7069 -0.7073 0.7073 0.7069 -260.0525 311.312)" class="st7" cx="245.629" cy="469.457" rx="53.594" ry="130.862" style="opacity: 1;"></ellipse>
			<path class="st1" d="M331.496,550.091c-4.777,4.776-12.099,6.496-21.143,5.526c-24.034-2.543-60.26-23.898-93.631-57.257
				c-33.388-33.377-54.75-69.59-57.295-93.598c-0.952-9.058,0.769-16.377,5.528-21.135c17.408-17.402,68.791,5.764,114.773,51.749
				C325.712,481.342,348.886,532.707,331.496,550.091z" style="opacity: 1;"></path>
			<path class="st8" d="M310.353,555.617c-24.034-2.543-60.26-23.898-93.631-57.257c-8.054-8.051-15.413-16.267-21.966-24.447
				c-20.63-25.691-33.407-50.943-35.329-69.15c24.034,2.543,60.26,23.898,93.631,57.275c7.633,7.63,14.644,15.407,20.923,23.148
				C295.234,511.334,308.395,537.099,310.353,555.617z" style="opacity: 1;"></path>
			<path class="st9" d="M273.982,485.185c-16.31-7.557-41.553-11.73-79.225-11.272c-20.63-25.691-33.407-50.943-35.329-69.15
				c24.034,2.543,60.26,23.898,93.631,57.275C260.692,469.668,267.703,477.445,273.982,485.185z" style="opacity: 1;"></path>
		</g>
		<ellipse class="st2" cx="356.849" cy="320.143" rx="10.297" ry="10.293" style="opacity: 1;"></ellipse>
		<ellipse class="st1" cx="561.252" cy="114.669" rx="9.674" ry="9.671" style="opacity: 1;"></ellipse>
		<ellipse class="st3" cx="672.458" cy="352.236" rx="10.917" ry="10.913" style="opacity: 1;"></ellipse>
		<ellipse class="st1" cx="448.869" cy="355.09" rx="10.893" ry="10.889" style="opacity: 1;"></ellipse>
		<ellipse class="st3" cx="262.013" cy="353.542" rx="9.611" ry="9.607" style="opacity: 1;"></ellipse>
		<ellipse class="st0" cx="342.611" cy="35.1" rx="10.621" ry="10.617" style="opacity: 1;"></ellipse>
		<path class="st1" d="M349.189,465.325l-11.887,4.444c-1.642,0.614-3.216-1.046-2.515-2.652l7.737-17.737
			c0.215-0.493,0.621-0.877,1.124-1.066l11.887-4.444c1.642-0.614,3.216,1.046,2.515,2.652l-7.737,17.737
			C350.098,464.752,349.693,465.137,349.189,465.325z" style="opacity: 1;"></path>
		<g>
			<path class="st10" d="M65.278,687.011c-12.54-19.607-21.358-39.616-27.51-58.817l-11.886,26.219
				c5.043,13.683,11.509,27.657,19.747,41.498L65.278,687.011z" style="opacity: 1;"></path>
			<path class="st10" d="M105.293,668.884l20.387-9.235c-30.067-38.204-44.072-79.59-50.217-114.61l-12.966,28.603
				C69.226,603.639,81.972,637.164,105.293,668.884z" style="opacity: 1;"></path>
			<path class="st10" d="M167.136,640.87l21.139-9.576c-59.055-61.418-69.948-135.945-70.514-179.564l-14.826,32.708
				C106.001,527.162,119.748,588.205,167.136,640.87z" style="opacity: 1;"></path>
			<path class="st10" d="M177.629,472.44c-10.979-14.96-19.403-29.687-24.854-43.139c2.617,47.897,18.457,121.938,83.444,180.275
				l21.972-9.953C211.881,560.726,188.777,513.968,177.629,472.44z" style="opacity: 1;"></path>
		</g>
	</g>
</g>
</svg>
